<?xml version="1.0" encoding="UTF-8"?>
<svg version="1.1" xmlns="http://www.w3.org/2000/svg" width="297" height="307">
<path d="M0 0 C1.88882446 -0.00005615 3.77764893 -0.00011722 5.66647339 -0.00018311 C27.49723708 0.00548344 49.31223651 0.07873675 71.125 1.0625 C72.02596405 1.10170563 72.9269281 1.14091125 73.85519409 1.18130493 C95.5596701 2.16751488 116.04312435 5.42061276 131.65234375 22.0234375 C153.23279894 46.47246036 151.98246069 80.82973705 152.3125 112 C152.34740277 114.53955091 152.38231504 117.07910169 152.41723633 119.61865234 C153.8001574 233.20976514 153.8001574 233.20976514 137.4921875 252.65625 C114.05077409 275.17344997 68.17998732 271.09743466 37.875 271.75 C36.93692505 271.77117889 35.9988501 271.79235779 35.03234863 271.81417847 C15.54159279 272.24895706 -3.94293684 272.29838087 -23.4375 272.1875 C-23.81551758 272.91485352 -24.19353516 273.64220703 -24.58300781 274.39160156 C-32.78360372 289.85190996 -44.50857824 300.8010249 -61.4375 306.1875 C-62.7575 306.1875 -64.0775 306.1875 -65.4375 306.1875 C-63.62440997 302.41022911 -61.5301741 298.81480178 -59.4375 295.1875 C-63.0675 296.1775 -66.6975 297.1675 -70.4375 298.1875 C-70.4375 294.07599501 -70.09058482 293.23214929 -68.125 289.875 C-64.66589612 283.32039122 -63.62453397 276.42551199 -62.4375 269.1875 C-63.61183594 269.15011719 -64.78617187 269.11273438 -65.99609375 269.07421875 C-85.3570626 268.33899208 -104.27379043 267.09366209 -118.4375 252.1875 C-144.01021076 224.10935474 -138.6507953 180.04765978 -138.625 144.5625 C-138.62506042 143.2734375 -138.62512085 141.984375 -138.62518311 140.65625 C-138.61338663 122.81778051 -138.33111427 105.00984695 -137.5625 87.1875 C-137.50369156 85.78549347 -137.50369156 85.78549347 -137.44369507 84.35516357 C-137.02433255 74.66315806 -136.40652435 65.00477179 -135.4765625 55.34765625 C-135.40027618 54.53784302 -135.32398987 53.72802979 -135.24539185 52.89367676 C-133.72770848 38.09466544 -128.69434311 23.43122723 -117.4375 13.1875 C-89.34830333 -8.90455067 -33.79974575 -0.01676311 0 0 Z M-6.4375 42.1875 C-7.83966123 44.04210279 -7.83966123 44.04210279 -7.4375 46.1875 C-5.21337348 49.11249528 -4.02375029 50.09214268 -0.35302734 50.68920898 C0.8282373 50.68735596 2.00950195 50.68550293 3.2265625 50.68359375 C4.51304687 50.68423828 5.79953125 50.68488281 7.125 50.68554688 C7.79144531 50.67515381 8.45789063 50.66476074 9.14453125 50.65405273 C11.18831964 50.62498834 13.22952953 50.63347054 15.2734375 50.64648438 C20.43503364 50.65212086 20.43503364 50.65212086 25.5625 50.1875 C27.86269361 46.73720958 27.99382515 45.24195642 27.5625 41.1875 C22.93823384 38.10465589 18.25152604 38.85888914 12.8125 38.875 C11.74 38.85888672 10.6675 38.84277344 9.5625 38.82617188 C3.46868294 38.82241952 -1.09997075 39.14384633 -6.4375 42.1875 Z " fill="#74BA9C" transform="translate(140.4375,0.8125)"/>
<path d="M0 0 C0 3.3 0 6.6 0 10 C2.31 10 4.62 10 7 10 C7 6.7 7 3.4 7 0 C22.99308654 -0.56497317 38.43369893 -0.25516318 54.25 2.25 C54.91950684 2.35251068 55.58901367 2.45502136 56.27880859 2.56063843 C77.59352742 5.88466647 77.59352742 5.88466647 84.54296875 14.8359375 C88.89016207 21.29262678 90.60085573 27.96573128 92.25 35.5 C92.4255542 36.29510986 92.6011084 37.09021973 92.78198242 37.90942383 C93.89464623 43.36602601 94.15588624 48.43263442 94 54 C91.69 54 89.38 54 87 54 C87.02094727 54.96373535 87.04189453 55.9274707 87.06347656 56.92041016 C88.27541221 118.27932294 88.27541221 118.27932294 77 133 C62.7129296 146.96236425 36.15228682 145.13885668 17.52734375 145.203125 C16.54658969 145.20736607 16.54658969 145.20736607 15.54602242 145.21169281 C12.08414463 145.22651134 8.62230662 145.23584897 5.16040039 145.24023438 C2.35753279 145.24460753 -0.44502502 145.25847917 -3.24780273 145.28125 C-55.6047585 145.69763077 -55.6047585 145.69763077 -69 133.8125 C-74.56701702 127.37720747 -76.66926679 118.96462622 -77.75 110.6875 C-77.87286377 109.76831787 -77.99572754 108.84913574 -78.12231445 107.90209961 C-80.18037184 89.4312138 -79.23452914 70.55185632 -79 52 C-80.65 52 -82.3 52 -84 52 C-83.6383119 36.73676228 -81.87363999 22.65853081 -70.625 11.3125 C-52.666662 -3.23309111 -21.45713665 -0.4869811 0 0 Z " fill="#E8F3ED" transform="translate(147,67)"/>
<path d="M0 0 C1.65 0 3.3 0 5 0 C5 3.3 5 6.6 5 10 C6.53297729 9.96845825 6.53297729 9.96845825 8.09692383 9.9362793 C17.99840744 9.79676151 27.63988968 10.3516739 37.46704102 11.54418945 C39.69615456 11.81354578 41.92678353 12.06500036 44.15820312 12.31445312 C77.97460164 16.2085669 77.97460164 16.2085669 86 26 C93.67289973 38.11510483 96.23661385 51.6809314 97.21484375 65.734375 C97.67483992 69.16216532 97.67483992 69.16216532 100.4609375 70.87109375 C101.29882812 71.24363281 102.13671875 71.61617188 103 72 C106.21668763 74.50186816 106.96400525 77.09675006 108 81 C109.31756782 94.56134274 109.26246782 110.53662002 101.5 122.3125 C97.67242444 126.42714373 94.79783498 127.22872607 89.25 127.625 C88.26515625 127.69976562 87.2803125 127.77453125 86.265625 127.8515625 C85.51796875 127.90054688 84.7703125 127.94953125 84 128 C83.97261328 125.83340626 83.95343168 123.66670825 83.9375 121.5 C83.92589844 120.2934375 83.91429687 119.086875 83.90234375 117.84375 C84 114 84 114 84.48632812 110.31445312 C85.05600667 105.91617872 85.21999331 101.5557543 85.31640625 97.125 C85.3475779 95.91009888 85.3475779 95.91009888 85.37937927 94.6706543 C85.44413656 92.11384576 85.50341194 89.55694519 85.5625 87 C85.60575566 85.25389719 85.64937204 83.50780328 85.69335938 81.76171875 C85.79974083 77.50790391 85.90121018 73.25399764 86 69 C88.31 69 90.62 69 93 69 C90.35467577 45.45952373 90.35467577 45.45952373 78.625 25.5625 C70.81715411 20.91497268 62.22534827 19.74564195 53.375 18.375 C52.68567383 18.26572174 51.99634766 18.15644348 51.28613281 18.04385376 C36.21353587 15.68789345 21.24425833 15.08450621 6 15 C6 18.3 6 21.6 6 25 C3.69 25 1.38 25 -1 25 C-1 21.7 -1 18.4 -1 15 C-40.08730983 14.04976047 -40.08730983 14.04976047 -74.19921875 29.69140625 C-80.75206687 38.09212911 -83.04017618 48.56053772 -84.125 58.9375 C-84.21136719 59.71673828 -84.29773438 60.49597656 -84.38671875 61.29882812 C-84.59651323 63.1986337 -84.79901994 65.09924174 -85 67 C-83.35 67 -81.7 67 -80 67 C-79.97494385 68.27939453 -79.9498877 69.55878906 -79.92407227 70.87695312 C-79.82869744 75.70043104 -79.72881446 80.52380755 -79.62768555 85.34716797 C-79.58482128 87.42038574 -79.54312101 89.49362797 -79.50268555 91.56689453 C-79.26447511 103.73621285 -78.90341639 115.85985726 -78 128 C-79.65 128 -81.3 128 -83 128 C-82.4369732 131.64926451 -81.84585225 135.29346329 -81.25 138.9375 C-81.09273437 139.95908203 -80.93546875 140.98066406 -80.7734375 142.03320312 C-79.27848766 151.03165121 -77.34895195 159.04213403 -69.83984375 164.7890625 C-60.78405227 170.74934988 -49.53035669 171.2260086 -39 172 C-38.34 170.68 -37.68 169.36 -37 168 C-34.54137599 167.94616152 -32.0839245 167.90640962 -29.625 167.875 C-28.92632812 167.85824219 -28.22765625 167.84148437 -27.5078125 167.82421875 C-25.67102514 167.80655733 -23.83398037 167.89696739 -22 168 C-20 170 -20 170 -19.625 173.9375 C-19.71675117 176.74610518 -19.77979719 177.70639626 -21.5 180 C-26.24181978 181.89672791 -30.59022091 181.30758816 -35.4375 180.25 C-36.283125 179.8375 -37.12875 179.425 -38 179 C-38.66015625 176.921875 -38.66015625 176.921875 -39 175 C-39.76441406 175.04640625 -40.52882812 175.0928125 -41.31640625 175.140625 C-52.90593139 175.53112645 -65.86019994 173.80171519 -75 166 C-81.24198276 160.07093986 -83.31980332 152.83397583 -84.625 144.625 C-84.74979736 143.8812915 -84.87459473 143.13758301 -85.00317383 142.37133789 C-85.84439756 137.26203409 -86.53109371 132.15796923 -87 127 C-88.051875 126.608125 -89.10375 126.21625 -90.1875 125.8125 C-95.35890786 123.56633295 -98.21928393 120.56143214 -100.75 115.5 C-103.28295144 108.40773598 -103.25038759 101.65341148 -103.3125 94.1875 C-103.34150391 93.03701172 -103.37050781 91.88652344 -103.40039062 90.70117188 C-103.45303474 83.63471157 -102.89224081 78.96436901 -99 73 C-95.98990547 70.60421048 -93.63363762 69.21121254 -90 68 C-89.90203125 66.85144531 -89.8040625 65.70289062 -89.703125 64.51953125 C-88.32425955 49.69472583 -86.07885451 34.62631604 -75 23.75 C-58.52186162 10.24596464 -30.72278763 9.75882408 -10.3125 9.9375 C-9.31283203 9.94201172 -8.31316406 9.94652344 -7.28320312 9.95117188 C-4.85544198 9.96278796 -2.42771234 9.98071544 0 10 C0 6.7 0 3.4 0 0 Z " fill="#2B373F" transform="translate(148,52)"/>
<path d="M0 0 C0 3.3 0 6.6 0 10 C2.31 10 4.62 10 7 10 C7 6.7 7 3.4 7 0 C22.99308654 -0.56497317 38.43369893 -0.25516318 54.25 2.25 C54.91950684 2.35251068 55.58901367 2.45502136 56.27880859 2.56063843 C77.59352742 5.88466647 77.59352742 5.88466647 84.54296875 14.8359375 C88.89016207 21.29262678 90.60085573 27.96573128 92.25 35.5 C92.4255542 36.29510986 92.6011084 37.09021973 92.78198242 37.90942383 C93.89464623 43.36602601 94.15588624 48.43263442 94 54 C91.69 54 89.38 54 87 54 C87 66.21 87 78.42 87 91 C86.67 91 86.34 91 86 91 C85.99453156 90.05945015 85.99453156 90.05945015 85.98895264 89.09989929 C85.94689516 82.52871643 85.87738879 75.95821698 85.79248047 69.38745117 C85.76438707 66.94058086 85.74311517 64.49362175 85.72900391 62.04663086 C85.70741338 58.51370158 85.66067886 54.98182693 85.609375 51.44921875 C85.60753204 49.82822517 85.60753204 49.82822517 85.60565186 48.17448425 C85.446763 39.79236683 83.90105028 31.52343556 78.8125 24.625 C64.69273023 11.44654822 41.8031647 11.6949872 23.58984375 11.6640625 C22.1656533 11.65759766 20.74146404 11.65086696 19.317276 11.64389038 C16.35512223 11.63204339 13.39308391 11.62819619 10.4309082 11.62939453 C7.44758729 11.62955656 4.46488386 11.61572813 1.48168945 11.58837891 C-37.09656189 10.23898925 -37.09656189 10.23898925 -70.484375 26.25 C-77.59462808 34.45977675 -77.45162563 45.72519597 -78 56 C-78.33 54.68 -78.66 53.36 -79 52 C-80.65 52 -82.3 52 -84 52 C-83.6383119 36.73676228 -81.87363999 22.65853081 -70.625 11.3125 C-52.666662 -3.23309111 -21.45713665 -0.4869811 0 0 Z " fill="#78B69D" transform="translate(147,67)"/>
<path d="M0 0 C-1.72265326 0.78528157 -3.45370199 1.55214098 -5.1875 2.3125 C-6.15042969 2.74175781 -7.11335937 3.17101562 -8.10546875 3.61328125 C-17.88528729 7.39426549 -28.38973494 8.60291107 -38.75 9.625 C-40.4515625 9.80675781 -40.4515625 9.80675781 -42.1875 9.9921875 C-58.3267394 11.65677273 -74.47595903 12.21341258 -90.6875 12.5625 C-91.62557495 12.58367889 -92.5636499 12.60485779 -93.53015137 12.62667847 C-113.02090721 13.06145706 -132.50543684 13.11088087 -152 13 C-152.37801758 13.72735352 -152.75603516 14.45470703 -153.14550781 15.20410156 C-161.34610372 30.66440996 -173.07107824 41.6135249 -190 47 C-191.32 47 -192.64 47 -194 47 C-192.62159784 44.16661778 -191.13581614 41.44311194 -189.5 38.75 C-189.0771875 38.04359375 -188.654375 37.3371875 -188.21875 36.609375 C-187.8165625 36.07828125 -187.414375 35.5471875 -187 35 C-186.34 35 -185.68 35 -185 35 C-186.49836105 38.11198065 -188.19933758 41.0534615 -190 44 C-183.78355745 42.30083904 -179.76570211 40.32238098 -175 36 C-174.29875 35.67 -173.5975 35.34 -172.875 35 C-170.19989187 33.57327566 -168.84000039 31.37419405 -167 29 C-166.01 28.34 -165.02 27.68 -164 27 C-163.27617533 24.94074861 -163.27617533 24.94074861 -163 23 C-162.01 23 -161.02 23 -160 23 C-160.495 21.515 -160.495 21.515 -161 20 C-160.236875 19.278125 -159.47375 18.55625 -158.6875 17.8125 C-155.9209157 15.2513354 -155.9209157 15.2513354 -154.88476562 12.35253906 C-153 10 -153 10 -149.11914062 9.44824219 C-147.46453416 9.45576018 -145.80992164 9.49075737 -144.15625 9.546875 C-142.80534019 9.56165642 -142.80534019 9.56165642 -141.42713928 9.57673645 C-139.47406252 9.60047293 -137.52109733 9.63541879 -135.56838989 9.6802063 C-130.35741654 9.79873528 -125.1455832 9.83544513 -119.93359375 9.88671875 C-118.32797829 9.90622841 -118.32797829 9.90622841 -116.68992615 9.9261322 C-105.64086389 10.04932974 -94.60768929 9.84049282 -83.5625 9.5625 C-81.80078258 9.52240253 -80.03906386 9.48236196 -78.27734375 9.44238281 C-65.12933466 9.12470094 -52.11631952 8.63196996 -39.12109375 6.46875 C-36.03589199 6.00539054 -32.98597548 5.72421445 -29.875 5.5 C-21.30196465 4.83358487 -13.64326393 3.76456765 -5.97265625 -0.29296875 C-3.58282657 -1.14952157 -2.3583958 -0.82834036 0 0 Z " fill="#75A38E" transform="translate(269,260)"/>
<path d="M0 0 C3.0625 1.9375 3.0625 1.9375 5 5 C5.94728069 9.67719839 5.66588027 12.93459157 3.125 17 C-0.14840013 20.08084718 -2.46126475 20.33387487 -6.9609375 20.29296875 C-10.13134567 19.83745033 -11.8192402 18.24684343 -14 16 C-15.5547669 12.89046621 -15.28644437 10.43733239 -15 7 C-11.15377663 0.07679794 -7.65676341 -1.12211188 0 0 Z " fill="#2D343E" transform="translate(192,121)"/>
<path d="M0 0 C3.16872216 0.68885264 4.96142228 2.13674555 7.15625 4.46875 C8.7110169 7.57828379 8.44269437 10.03141761 8.15625 13.46875 C5.07932692 19.00721154 5.07932692 19.00721154 2.15625 20.46875 C-2.3288642 20.91726142 -5.55404797 21.15697212 -9.34375 18.53125 C-12.2553995 14.96447936 -12.69690292 13.18473796 -12.3515625 8.6953125 C-10.82015616 1.98068469 -6.68977589 -0.44598506 0 0 Z " fill="#303640" transform="translate(115.84375,120.53125)"/>
<path d="M0 0 C1.65 0 3.3 0 5 0 C5 3.3 5 6.6 5 10 C10.61 10 16.22 10 22 10 C22 10.33 22 10.66 22 11 C11.605 11.495 11.605 11.495 1 12 C1.495 14.97 1.495 14.97 2 18 C2.66 18 3.32 18 4 18 C4.495 20.475 4.495 20.475 5 23 C5 20.03 5 17.06 5 14 C9.95 14 14.9 14 20 14 C20 14.33 20 14.66 20 15 C15.38 15 10.76 15 6 15 C6 18.3 6 21.6 6 25 C3.69 25 1.38 25 -1 25 C-1 21.7 -1 18.4 -1 15 C-18.325 15.495 -18.325 15.495 -36 16 C-36 15.01 -36 14.02 -36 13 C-36.66 12.67 -37.32 12.34 -38 12 C-25.27965287 9.95891278 -12.86113412 9.78722388 0 10 C0 6.7 0 3.4 0 0 Z " fill="#2C4244" transform="translate(148,52)"/>
<path d="M0 0 C0.33 0 0.66 0 1 0 C1.11414361 10.01927263 0.91071147 19.95390356 0.296875 29.9543457 C-0.87527964 49.55268503 -1.26028379 69.15661507 -1.53222656 88.78369141 C-1.58350638 92.43200227 -1.63862208 96.08025529 -1.69335938 99.72851562 C-1.79920451 106.81895989 -1.90099425 113.90945665 -2 121 C-2.99 121.495 -2.99 121.495 -4 122 C-4.19921423 93.52614288 -4.35783772 65.07735179 -3.0625 36.625 C-3.01893372 35.66093231 -2.97536743 34.69686462 -2.93048096 33.70358276 C-1.59409752 4.78229256 -1.59409752 4.78229256 0 0 Z " fill="#6B9B88" transform="translate(6,51)"/>
<path d="M0 0 C13.87416779 -0.60554776 26.80266481 6.35963567 37.0625 15.1875 C49.91247495 27.22802771 55.13118555 37.93329492 58 55 C58.19078125 56.13308594 58.3815625 57.26617187 58.578125 58.43359375 C59.05525884 62.46714184 59.11073098 66.38238734 59.0625 70.4375 C59.05798828 71.16904297 59.05347656 71.90058594 59.04882812 72.65429688 C59.03718148 74.43623419 59.01925191 76.21812863 59 78 C58.67 78 58.34 78 58 78 C57.91959473 77.33581055 57.83918945 76.67162109 57.75634766 75.98730469 C56.8648801 68.65463436 55.94382428 61.3261104 55 54 C54.83371094 52.69675781 54.66742188 51.39351562 54.49609375 50.05078125 C53.24202347 41.40786444 50.68772045 34.70338481 45 28 C45 27.34 45 26.68 45 26 C44.360625 25.731875 43.72125 25.46375 43.0625 25.1875 C41 24 41 24 40 21 C38.33729713 19.66172696 36.67083819 18.32810215 35 17 C35 16.34 35 15.68 35 15 C34.278125 14.7525 33.55625 14.505 32.8125 14.25 C30 13 30 13 27.4375 10.9375 C25.13856875 9.11014439 23.84877273 8.4220404 21 8 C21 7.34 21 6.68 21 6 C14.01556007 4.57584088 7.01694482 3.25397873 0 2 C0 1.34 0 0.68 0 0 Z " fill="#77A08F" transform="translate(231,4)"/>
<path d="M0 0 C0.33 0 0.66 0 1 0 C1.73724689 79.89487798 1.73724689 79.89487798 -7 99 C-7.625 97.25 -7.625 97.25 -8 95 C-7.69407425 94.40386902 -7.3881485 93.80773804 -7.07295227 93.19354248 C-5.81287698 90.6174459 -5.52415526 88.50159186 -5.20776367 85.65332031 C-5.08742264 84.57451599 -4.9670816 83.49571167 -4.84309387 82.38421631 C-4.72342758 81.21070618 -4.60376129 80.03719604 -4.48046875 78.828125 C-4.35198044 77.59515686 -4.22349213 76.36218872 -4.09111023 75.09185791 C-2.6684328 60.7137792 -2.01287132 46.30448388 -1.40332031 31.87298584 C-1.24865078 28.25748159 -1.08376276 24.64244192 -0.91992188 21.02734375 C-0.60369318 14.01863558 -0.29810637 7.0095045 0 0 Z " fill="#76A38F" transform="translate(291,145)"/>
<path d="M0 0 C0.99 0 1.98 0 3 0 C3 0.99 3 1.98 3 3 C3.99 3.33 4.98 3.66 6 4 C6.5775 5.010625 7.155 6.02125 7.75 7.0625 C8.4925 8.031875 9.235 9.00125 10 10 C13.66857722 10.50125283 13.66857722 10.50125283 17 10 C17.28875 11.134375 17.5775 12.26875 17.875 13.4375 C18.24625 14.613125 18.6175 15.78875 19 17 C19.66 17.33 20.32 17.66 21 18 C21 18.66 21 19.32 21 20 C28.37436691 24.02103306 34.15517088 26.0770359 42.625 25.9375 C46.28505411 25.88195112 48.60697531 26.60798987 52 28 C53.9984466 28.03172137 55.99820453 28.06077217 57.99609375 28.00390625 C60.73145099 27.99857417 63.32425416 28.46485083 66 29 C66 29.33 66 29.66 66 30 C46.55625023 30.5762692 27.00224492 30.19866803 11.953125 16.06640625 C1.76107106 5.28321318 1.76107106 5.28321318 0 0 Z " fill="#73B096" transform="translate(12,239)"/>
<path d="M0 0 C0.99 0 1.98 0 3 0 C2.63471503 7.18393782 2.63471503 7.18393782 -0.1875 10.8125 C-4.9845953 14.54357412 -8.93965238 16.6153819 -15.05078125 16.34765625 C-19.67855753 15.52226128 -22.80035919 12.39551399 -25.875 9.0625 C-28.05723884 5.91750874 -28.54569751 4.71074304 -28 1 C-27.01 1 -26.02 1 -25 1 C-23.75390625 2.6796875 -23.75390625 2.6796875 -22.5625 4.875 C-20.78485977 8.1486741 -19.52992925 9.68215975 -16 11 C-11.85189419 11.46090065 -9.53066904 11.25512934 -5.75 9.4375 C-2.36659799 6.43857549 -1.46245727 4.22487655 0 0 Z " fill="#363F44" transform="translate(163,161)"/>
<path d="M0 0 C0.495 0.99 0.495 0.99 1 2 C-2.08248513 3.02749504 -4.12279928 3.10151364 -7.34765625 3.0625 C-8.95483521 3.04956909 -8.95483521 3.04956909 -10.59448242 3.03637695 C-11.73892822 3.02437256 -12.88337402 3.01236816 -14.0625 3 C-29.03378353 2.93722948 -43.41378841 3.07711087 -58.05859375 6.37890625 C-61 7 -61 7 -64 7 C-64 6.34 -64 5.68 -64 5 C-43.50314433 -1.48634673 -21.24163302 -0.28034643 0 0 Z " fill="#7BA796" transform="translate(100,2)"/>
<path d="M0 0 C8.78760665 -0.46070947 8.78760665 -0.46070947 13.125 1.1875 C15 3 15 3 15.375 5.625 C15 8 15 8 14 9 C9.00063575 9.564743 5.18096607 9.75581828 0.875 7 C0.25625 6.34 -0.3625 5.68 -1 5 C-0.67 3.35 -0.34 1.7 0 0 Z " fill="#E3B3A6" transform="translate(92,160)"/>
<path d="M0 0 C0.98484375 0.02707031 1.9696875 0.05414063 2.984375 0.08203125 C3.73203125 0.11683594 4.4796875 0.15164062 5.25 0.1875 C5.58 1.8375 5.91 3.4875 6.25 5.1875 C1.17935241 9.20904809 -2.46845856 9.39013037 -8.75 9.1875 C-9.75 8.1875 -9.75 8.1875 -10.0625 5.8125 C-9.75 3.1875 -9.75 3.1875 -8.08984375 1.53515625 C-5.18242785 -0.13939882 -3.33013541 -0.11893341 0 0 Z " fill="#EBAFA0" transform="translate(203.75,159.8125)"/>
<path d="M0 0 C0.33 0 0.66 0 1 0 C1.06993164 1.15298584 1.13986328 2.30597168 1.21191406 3.49389648 C1.48055735 7.85803017 1.76865004 12.22071612 2.06201172 16.58325195 C2.18531082 18.45531665 2.30364739 20.32771622 2.41650391 22.20043945 C3.0912988 33.33455528 4.30432054 43.85766732 7.18652344 54.64868164 C8 58 8 58 8 62 C-3.99176066 47.5364001 -0.28239749 17.4543373 0 0 Z " fill="#6F9E8B" transform="translate(3,174)"/>
<path d="M0 0 C16.03391014 -0.10778821 31.99927319 -0.11586638 48 1 C47.67 1.99 47.34 2.98 47 4 C46.32195312 3.835 45.64390625 3.67 44.9453125 3.5 C41.52532934 2.9194193 38.34424534 2.94301034 34.875 3 C28.54794464 3.05878365 22.2561129 2.893952 15.9375 2.5625 C15.15294434 2.52318359 14.36838867 2.48386719 13.56005859 2.44335938 C8.98834433 2.18910361 4.52289541 1.71477364 0 1 C0 0.67 0 0.34 0 0 Z " fill="#76A593" transform="translate(182,2)"/>
<path d="M0 0 C0 0.66 0 1.32 0 2 C-2.5 3.5 -2.5 3.5 -5 5 C-15.37934725 14.0486617 -18.99871206 25.99441894 -22 39 C-22.33 39 -22.66 39 -23 39 C-23.93697584 26.58507006 -17.60365597 15.46290205 -9.9375 6.0625 C-7.21886447 3.03703684 -4.28808892 0 0 0 Z " fill="#729E8D" transform="translate(30,11)"/>
<path d="M0 0 C0.33 0 0.66 0 1 0 C1.37571921 10.33227823 -1.04658776 17.94395243 -6 27 C-5.22269531 26.66226562 -4.44539063 26.32453125 -3.64453125 25.9765625 C-0.81175911 24.93048712 0.23309576 24.97522065 3 26 C-1.0188515 27.81242323 -4.61110675 29.33501617 -9 30 C-9 25.91711181 -8.68500296 25.08380027 -6.75 21.75 C-3.13603199 14.89272737 -1.66846856 7.51276903 0 0 Z " fill="#71A28E" transform="translate(79,269)"/>
<path d="M0 0 C3.28710717 0.664978 5.87172894 1.90688938 8.8125 3.5 C14.49876747 6.38470002 19.30727502 7.04158114 25.625 6.9375 C29.28505411 6.88195112 31.60697531 7.60798987 35 9 C36.9984466 9.03172137 38.99820453 9.06077217 40.99609375 9.00390625 C43.73145099 8.99857417 46.32425416 9.46485083 49 10 C49 10.33 49 10.66 49 11 C32.29535949 11.49508814 15.47459971 11.5521715 1 2 C0.67 1.34 0.34 0.68 0 0 Z " fill="#74A18D" transform="translate(29,258)"/>
<path d="M0 0 C0.33 0 0.66 0 1 0 C1.10269894 9.01468517 1.04212188 17.99548599 0.5625 27 C0.52326416 27.78294434 0.48402832 28.56588867 0.44360352 29.37255859 C0.12394681 34.87605319 0.12394681 34.87605319 -1 36 C-1.23427778 38.01594582 -1.41336124 40.038474 -1.5625 42.0625 C-1.68818359 43.71958984 -1.68818359 43.71958984 -1.81640625 45.41015625 C-1.87699219 46.26480469 -1.93757812 47.11945313 -2 48 C-2.33 48 -2.66 48 -3 48 C-3.1245544 38.57722876 -2.83594159 29.26109233 -2.20043945 19.86401367 C-2.06006259 17.77624941 -1.9290663 15.68802827 -1.79882812 13.59960938 C-1.71148388 12.26038092 -1.62361382 10.92118663 -1.53515625 9.58203125 C-1.456604 8.38811768 -1.37805176 7.1942041 -1.29711914 5.96411133 C-1 3 -1 3 0 0 Z " fill="#72A08D" transform="translate(6,51)"/>
<path d="M0 0 C0.78246094 -0.02578125 1.56492188 -0.0515625 2.37109375 -0.078125 C5.04181509 0.32176911 5.88227439 1.19699122 7.5625 3.25 C6.69625 3.435625 6.69625 3.435625 5.8125 3.625 C3.56466477 4.16163817 3.56466477 4.16163817 1.6875 5.25 C-0.4375 6.25 -0.4375 6.25 -3.5 6.4375 C-6.47053522 6.90974103 -6.47053522 6.90974103 -7.48828125 8.8671875 C-8.23274791 10.62426995 -8.84394738 12.436367 -9.4375 14.25 C-9.7675 14.25 -10.0975 14.25 -10.4375 14.25 C-10.8935284 8.54964499 -10.04162752 5.70215753 -6.4375 1.25 C-4.11063547 0.08656773 -2.59028587 0.05104012 0 0 Z " fill="#313941" transform="translate(187.4375,120.75)"/>
<path d="M0 0 C0.66 0.33 1.32 0.66 2 1 C2.04946113 5.21751282 2.08574827 9.43487168 2.10986328 13.65258789 C2.119917 15.08718812 2.13356194 16.52176789 2.15087891 17.95629883 C2.17515549 20.01909438 2.18648919 22.08161885 2.1953125 24.14453125 C2.20578613 25.38565674 2.21625977 26.62678223 2.22705078 27.90551758 C2 31 2 31 0 34 C-0.16749457 29.47954554 -0.32806608 24.95891882 -0.48217773 20.43798828 C-0.53560391 18.89950922 -0.59093379 17.36109506 -0.64819336 15.82275391 C-0.73008748 13.61374914 -0.80517099 11.40460276 -0.87890625 9.1953125 C-0.90594131 8.50567413 -0.93297638 7.81603577 -0.96083069 7.10549927 C-1.11387171 2.22774341 -1.11387171 2.22774341 0 0 Z " fill="#73A691" transform="translate(290,89)"/>
<path d="M0 0 C0.66 0.33 1.32 0.66 2 1 C2.144375 1.804375 2.28875 2.60875 2.4375 3.4375 C2.76502717 6.34440658 2.76502717 6.34440658 6 8 C8.51584891 8.24150773 8.51584891 8.24150773 11.1875 8.125 C12.53908203 8.09792969 12.53908203 8.09792969 13.91796875 8.0703125 C14.94857422 8.03550781 14.94857422 8.03550781 16 8 C16 6.02 16 4.04 16 2 C16.99 2 17.98 2 19 2 C19.21861953 5.20641977 19.35600519 7.35323816 17.78515625 10.20703125 C16 12 16 12 13.765625 12.27734375 C8.34444518 11.5449794 3.9029034 10.4514517 -1 8 C-0.67 5.36 -0.34 2.72 0 0 Z " fill="#F6ECE4" transform="translate(90,160)"/>
<path d="M0 0 C1.20140625 -0.01224609 2.4028125 -0.02449219 3.640625 -0.03710938 C5.36539063 -0.04000977 5.36539063 -0.04000977 7.125 -0.04296875 C8.17945313 -0.04707764 9.23390625 -0.05118652 10.3203125 -0.05541992 C13 0.1875 13 0.1875 16 2.1875 C0.16 2.6825 0.16 2.6825 -16 3.1875 C-16 2.5275 -16 1.8675 -16 1.1875 C-10.84392299 -0.53119234 -5.39686549 0.00289531 0 0 Z " fill="#6E9684" transform="translate(152,37.8125)"/>
<path d="M0 0 C4.24591506 0.67344574 8.43180971 1.48985863 12.625 2.4375 C13.73101562 2.68371094 14.83703125 2.92992187 15.9765625 3.18359375 C18.57263324 3.88459993 20.66956398 4.68699824 23 6 C16.05860313 7.80967516 7.6075391 6.60037849 1.1875 3.375 C0.465625 2.92125 -0.25625 2.4675 -1 2 C-0.67 1.34 -0.34 0.68 0 0 Z " fill="#24403A" transform="translate(79,219)"/>
<path d="M0 0 C4.16216275 -0.32644414 6.36313462 -0.40650982 9.9375 1.875 C12 4 12 4 12 6 C8.70303895 7.09898702 7.59505097 6.87124444 4.3125 6.0625 C3.50425781 5.86785156 2.69601563 5.67320312 1.86328125 5.47265625 C1.24839844 5.31667969 0.63351563 5.16070312 0 5 C0 3.35 0 1.7 0 0 Z " fill="#F3AB99" transform="translate(93,161)"/>
<path d="M0 0 C0.66 0 1.32 0 2 0 C0.50163895 3.11198065 -1.19933758 6.0534615 -3 9 C2.08036071 7.43936632 6.43840185 5.76460494 11 3 C11.66 3.33 12.32 3.66 13 4 C0.27044025 12 0.27044025 12 -7 12 C-5.62159784 9.16661778 -4.13581614 6.44311194 -2.5 3.75 C-1.86578125 2.69039063 -1.86578125 2.69039063 -1.21875 1.609375 C-0.61546875 0.81273437 -0.61546875 0.81273437 0 0 Z " fill="#769C8D" transform="translate(82,295)"/>
<path d="M0 0 C1.19109375 -0.03867187 1.19109375 -0.03867187 2.40625 -0.078125 C5.00312625 0.32884814 5.86089345 1.25365228 7.5 3.25 C2.53926578 4.57286246 -2.41111512 4.33893197 -7.5 4.25 C-7.5 3.92 -7.5 3.59 -7.5 3.25 C-10.47 2.92 -13.44 2.59 -16.5 2.25 C-16.5 1.92 -16.5 1.59 -16.5 1.25 C-11.0103003 0.66554528 -5.52002651 0.16283264 0 0 Z " fill="#283E40" transform="translate(175.5,62.75)"/>
<path d="M0 0 C0.99 0 1.98 0 3 0 C4.38671875 1.609375 4.38671875 1.609375 5.6875 3.75 C6.12449219 4.44609375 6.56148437 5.1421875 7.01171875 5.859375 C8 8 8 8 8 12 C4.19374018 10.50468364 2.22059499 8.41019944 0 5 C-0.25 2.1875 -0.25 2.1875 0 0 Z " fill="#303A3D" transform="translate(135,162)"/>
<path d="M0 0 C0.33 0 0.66 0 1 0 C1 2.31 1 4.62 1 7 C-14.345 7.495 -14.345 7.495 -30 8 C-25.20477671 5.60238835 -21.44601041 4.86809026 -16.13671875 4.90234375 C-14.80737305 4.90717773 -14.80737305 4.90717773 -13.45117188 4.91210938 C-12.0831543 4.92467773 -12.0831543 4.92467773 -10.6875 4.9375 C-9.75615234 4.94201172 -8.82480469 4.94652344 -7.86523438 4.95117188 C-5.57675627 4.96290766 -3.28841192 4.97932637 -1 5 C-0.67 3.35 -0.34 1.7 0 0 Z " fill="#85B8A7" transform="translate(146,55)"/>
<path d="M0 0 C7.09209896 -0.09092435 13.95957136 0.14476355 21 1 C17.79619983 3.13586678 16.98060033 3.23132175 13.3125 3.125 C12.50425781 3.10695312 11.69601563 3.08890625 10.86328125 3.0703125 C9.94095703 3.03550781 9.94095703 3.03550781 9 3 C8.67 5.64 8.34 8.28 8 11 C7.67 11 7.34 11 7 11 C7 7.7 7 4.4 7 1 C5.35 1 3.7 1 2 1 C2 4.3 2 7.6 2 11 C1.67 11 1.34 11 1 11 C0.67 7.37 0.34 3.74 0 0 Z " fill="#668F82" transform="translate(146,51)"/>
<path d="M0 0 C2.97 0.495 2.97 0.495 6 1 C6.125 7.625 6.125 7.625 5 11 C2.35541621 12.32229189 0.32238699 12.09677194 -2.625 12.0625 C-3.62789062 12.05347656 -4.63078125 12.04445313 -5.6640625 12.03515625 C-6.43492187 12.02355469 -7.20578125 12.01195312 -8 12 C-8 11.67 -8 11.34 -8 11 C-7.04287109 10.92652344 -7.04287109 10.92652344 -6.06640625 10.8515625 C-4.82697266 10.73941406 -4.82697266 10.73941406 -3.5625 10.625 C-2.73878906 10.55539063 -1.91507813 10.48578125 -1.06640625 10.4140625 C-0.38449219 10.27742188 0.29742187 10.14078125 1 10 C2.38125018 7.23749964 2.19079306 5.05268901 2 2 C1.34 1.34 0.68 0.68 0 0 Z " fill="#75A996" transform="translate(165,40)"/>
<path d="M0 0 C0.99 0 1.98 0 3 0 C3.75 1.75 3.75 1.75 4 4 C2.71340837 5.37849103 1.37086915 6.70529025 0 8 C-2.26207287 11.78274889 -2.26207287 11.78274889 -3 16 C-3.66 16 -4.32 16 -5 16 C-4.67 13.03 -4.34 10.06 -4 7 C-3.01 7 -2.02 7 -1 7 C-0.67 4.69 -0.34 2.38 0 0 Z " fill="#72BA9D" transform="translate(72,87)"/>
<path d="M0 0 C4.95 0 9.9 0 15 0 C15 0.33 15 0.66 15 1 C10.38 1 5.76 1 1 1 C1 4.3 1 7.6 1 11 C-0.65 10.67 -2.3 10.34 -4 10 C-4 7.36 -4 4.72 -4 2 C-3.67 2.66 -3.34 3.32 -3 4 C-2.34 4 -1.68 4 -1 4 C-0.67 5.65 -0.34 7.3 0 9 C0 6.03 0 3.06 0 0 Z " fill="#3D5456" transform="translate(153,66)"/>
<path d="M0 0 C5.55044635 1.00917206 11.04355934 2.22439323 16 5 C15.67 5.33 15.34 5.66 15 6 C15.99 6.66 16.98 7.32 18 8 C11.61736662 7.5837413 6.44195901 5.34649204 1 2 C0.67 1.34 0.34 0.68 0 0 Z " fill="#D8F1E6" transform="translate(80,201)"/>
<path d="M0 0 C0.99 0 1.98 0 3 0 C3.89316269 5.93609666 3.97040422 11.06975197 3 17 C4.65 17 6.3 17 8 17 C8 17.33 8 17.66 8 18 C6.02 18 4.04 18 2 18 C1.66191314 15.93827387 1.32972639 13.8755797 1 11.8125 C0.814375 10.66394531 0.62875 9.51539062 0.4375 8.33203125 C0.06510523 5.49584607 -0.08596021 2.85280436 0 0 Z " fill="#324B4C" transform="translate(60,102)"/>
<path d="M0 0 C-2.76710894 2.76710894 -5.19725082 3.22655949 -9 4 C-11.9375 3.125 -11.9375 3.125 -14 2 C-8.78476938 -2.13621739 -6.3313339 -2.03080521 0 0 Z " fill="#2E4244" transform="translate(92,71)"/>
<path d="M0 0 C1 3 1 3 0.0625 5.1875 C-0.4634375 6.0846875 -0.4634375 6.0846875 -1 7 C-0.2575 6.649375 0.485 6.29875 1.25 5.9375 C4.1322726 4.95490707 5.21176345 4.9673198 8 6 C3.9811485 7.81242323 0.38889325 9.33501617 -4 10 C-4 5.28093812 -2.71245796 3.72962969 0 0 Z " fill="#6A9A89" transform="translate(74,289)"/>
<path d="M0 0 C2 3 2 3 3 8 C8.94 8 14.88 8 21 8 C21 8.33 21 8.66 21 9 C14.4 9.33 7.8 9.66 1 10 C0.26683709 6.33418546 -0.10380005 3.63300168 0 0 Z " fill="#384C4E" transform="translate(149,54)"/>
<path d="M0 0 C1.32 0.33 2.64 0.66 4 1 C-0.06706518 4.34080354 -3.29133711 5.14290528 -8.5 5.1875 C-9.2528125 5.20167969 -10.005625 5.21585938 -10.78125 5.23046875 C-13.24864173 4.97417278 -14.86356256 4.22845153 -17 3 C-16.36191406 3.01160156 -15.72382812 3.02320313 -15.06640625 3.03515625 C-14.24011719 3.04417969 -13.41382812 3.05320313 -12.5625 3.0625 C-11.32693359 3.07990234 -11.32693359 3.07990234 -10.06640625 3.09765625 C-8.00836062 3.23267348 -8.00836062 3.23267348 -7 2 C-4.66702567 1.95907063 -2.33294775 1.95758277 0 2 C0 1.34 0 0.68 0 0 Z " fill="#314A4A" transform="translate(109,222)"/>
<path d="M0 0 C0.33 0.66 0.66 1.32 1 2 C-5.49994153 11.20266635 -5.49994153 11.20266635 -10 14 C-10.99 13.67 -11.98 13.34 -13 13 C-12.56429688 12.64808594 -12.12859375 12.29617188 -11.6796875 11.93359375 C-7.29767503 8.30088644 -3.57436783 4.42540779 0 0 Z " fill="#7AA392" transform="translate(282,244)"/>
<path d="M0 0 C3 2 3 2 4 3 C6.32817964 3.36760731 8.6618385 3.70241581 11 4 C10.67 4.66 10.34 5.32 10 6 C2.61538462 6.36923077 2.61538462 6.36923077 -0.5 4.5 C-0.995 4.005 -1.49 3.51 -2 3 C-1.34 2.01 -0.68 1.02 0 0 Z " fill="#434B50" transform="translate(144,171)"/>
<path d="M0 0 C1.98 0.66 3.96 1.32 6 2 C6 2.66 6 3.32 6 4 C7.65 4 9.3 4 11 4 C11.33 4.99 11.66 5.98 12 7 C12.99 7.33 13.98 7.66 15 8 C9.86865375 7.48686537 5.25162208 5.94265013 1 3 C0.67 2.01 0.34 1.02 0 0 Z " fill="#76A594" transform="translate(76,214)"/>
<path d="M0 0 C0.99 0 1.98 0 3 0 C3.22179212 3.25295114 3.28601103 5.42797793 1.8125 8.375 C0 10 0 10 -2.6875 10.25 C-3.450625 10.1675 -4.21375 10.085 -5 10 C-5.33 9.01 -5.66 8.02 -6 7 C-4.02 6.67 -2.04 6.34 0 6 C0 4.02 0 2.04 0 0 Z " fill="#F1E7DC" transform="translate(106,162)"/>
<path d="M0 0 C3.82669043 3.42388092 5.72278474 6.00724943 7 11 C5.33333333 11 3.66666667 11 2 11 C1.34 7.37 0.68 3.74 0 0 Z " fill="#78AD9B" transform="translate(228,79)"/>
<path d="M0 0 C0.66 0 1.32 0 2 0 C1.938125 0.86625 1.87625 1.7325 1.8125 2.625 C2.02455502 6.44199033 3.12044307 8.71077536 5 12 C0.125 10.25 0.125 10.25 -1 8 C-1.125 4.4375 -1.125 4.4375 -1 1 C-0.67 0.67 -0.34 0.34 0 0 Z " fill="#699F8A" transform="translate(132,41)"/>
<path d="M0 0 C0.33 0.99 0.66 1.98 1 3 C-2.20010388 4.8133922 -5.13283843 5.52213974 -8.75 6.125 C-9.73484375 6.29257813 -10.7196875 6.46015625 -11.734375 6.6328125 C-12.48203125 6.75398437 -13.2296875 6.87515625 -14 7 C-14 6.01 -14 5.02 -14 4 C-13.24074219 3.87882813 -12.48148438 3.75765625 -11.69921875 3.6328125 C-10.20841797 3.38144531 -10.20841797 3.38144531 -8.6875 3.125 C-7.70136719 2.96257812 -6.71523437 2.80015625 -5.69921875 2.6328125 C-2.79940173 2.11914546 -2.79940173 2.11914546 0 0 Z " fill="#F1E1D7" transform="translate(209,165)"/>
<path d="M0 0 C0 0.33 0 0.66 0 1 C-2.31 1.33 -4.62 1.66 -7 2 C-5.68 2.99 -4.36 3.98 -3 5 C-5.64 5 -8.28 5 -11 5 C-11 4.01 -11 3.02 -11 2 C-11.66 1.67 -12.32 1.34 -13 1 C-8.59085217 -0.10228696 -4.51617599 -0.07654536 0 0 Z " fill="#35514E" transform="translate(123,63)"/>
<path d="M0 0 C0.33 0.66 0.66 1.32 1 2 C-1.87530081 2.9584336 -3.29049931 3.06656387 -6.23046875 2.87890625 C-7.03291016 2.83056641 -7.83535156 2.78222656 -8.66210938 2.73242188 C-9.91217773 2.64831055 -9.91217773 2.64831055 -11.1875 2.5625 C-12.4549707 2.48418945 -12.4549707 2.48418945 -13.74804688 2.40429688 C-15.83236299 2.27476311 -17.91623182 2.13806823 -20 2 C-20 1.67 -20 1.34 -20 1 C-6.3667426 -0.14806378 -6.3667426 -0.14806378 0 0 Z " fill="#6EA993" transform="translate(100,2)"/>
<path d="M0 0 C0.99 0 1.98 0 3 0 C3 0.99 3 1.98 3 3 C3.99 3.33 4.98 3.66 6 4 C7.39712274 5.95597184 8.73779907 7.95436401 10 10 C9.67 10.66 9.34 11.32 9 12 C7.68181446 10.56771184 6.37063296 9.12897516 5.0625 7.6875 C4.33160156 6.88699219 3.60070312 6.08648437 2.84765625 5.26171875 C1 3 1 3 0 0 Z " fill="#70A08E" transform="translate(12,239)"/>
<path d="M0 0 C1.66611905 -0.042721 3.33382885 -0.04063832 5 0 C6 1 6 1 6.0625 3.5625 C6.041875 4.366875 6.02125 5.17125 6 6 C4.68 6.33 3.36 6.66 2 7 C1.34 5.68 0.68 4.36 0 3 C0.66 2.67 1.32 2.34 2 2 C1.34 1.34 0.68 0.68 0 0 Z " fill="#243339" transform="translate(122,221)"/>
<path d="M0 0 C1.46373047 0.02707031 1.46373047 0.02707031 2.95703125 0.0546875 C3.69308594 0.07789063 4.42914063 0.10109375 5.1875 0.125 C5.1875 0.455 5.1875 0.785 5.1875 1.125 C4.50042969 1.17398438 3.81335938 1.22296875 3.10546875 1.2734375 C1.75388672 1.38558594 1.75388672 1.38558594 0.375 1.5 C-0.51832031 1.56960937 -1.41164062 1.63921875 -2.33203125 1.7109375 C-5.05648499 1.99145036 -5.05648499 1.99145036 -7.8125 4.125 C-8.0627157 7.20865871 -8.0627157 7.20865871 -7.8125 10.125 C-8.4725 10.125 -9.1325 10.125 -9.8125 10.125 C-10.1425 7.485 -10.4725 4.845 -10.8125 2.125 C-7.04027911 0.37336544 -4.145861 -0.09990027 0 0 Z " fill="#F0E3DB" transform="translate(202.8125,158.875)"/>
<path d="M0 0 C0.33 0 0.66 0 1 0 C1.22577402 5.4185766 0.46670113 9.77487721 -1 15 C-1.66 14.67 -2.32 14.34 -3 14 C-2.48594831 9.03083364 -1.76615118 4.70973649 0 0 Z " fill="#70A192" transform="translate(67,92)"/>
<path d="M0 0 C2.97 0.495 2.97 0.495 6 1 C1.5 5 1.5 5 -3 5 C-2.01 3.35 -1.02 1.7 0 0 Z " fill="#243839" transform="translate(77,73)"/>
<path d="M0 0 C0.66 0 1.32 0 2 0 C2.58052245 3.00988272 3.05989746 5.92889402 3 9 C1.0625 11.0625 1.0625 11.0625 -1 12 C-1.14285714 3.42857143 -1.14285714 3.42857143 0 0 Z " fill="#2C4545" transform="translate(241,100)"/>
<path d="M0 0 C0.33 0.99 0.66 1.98 1 3 C-1.94553377 8.66448802 -1.94553377 8.66448802 -5.75 9.875 C-6.4925 9.91625 -7.235 9.9575 -8 10 C-8 9.34 -8 8.68 -8 8 C-7.236875 7.566875 -6.47375 7.13375 -5.6875 6.6875 C-2.68071451 4.79951841 -1.60145073 3.11861458 0 0 Z " fill="#7CB29F" transform="translate(251,170)"/>
<path d="M0 0 C1.97986082 0.11347619 3.95891598 0.2410935 5.9375 0.375 C7.03964844 0.44460937 8.14179688 0.51421875 9.27734375 0.5859375 C10.62505859 0.79089844 10.62505859 0.79089844 12 1 C12.33 1.66 12.66 2.32 13 3 C11.40012764 3.27615058 9.794667 3.52007625 8.1875 3.75 C7.29417969 3.88921875 6.40085938 4.0284375 5.48046875 4.171875 C3 4 3 4 1.17578125 2.015625 C0.78777344 1.35046875 0.39976562 0.6853125 0 0 Z " fill="#7FAC97" transform="translate(134,50)"/>
<path d="M0 0 C0.33 0.66 0.66 1.32 1 2 C-0.65 2.33 -2.3 2.66 -4 3 C-4 3.33 -4 3.66 -4 4 C-6.31 4 -8.62 4 -11 4 C-11.33 3.34 -11.66 2.68 -12 2 C-8.04 1.34 -4.08 0.68 0 0 Z " fill="#72A993" transform="translate(232,266)"/>
<path d="M0 0 C0.33 0 0.66 0 1 0 C1.05399736 1.45792884 1.09279177 2.91642712 1.125 4.375 C1.14820312 5.18710938 1.17140625 5.99921875 1.1953125 6.8359375 C1 9 1 9 -1 11 C-2.50662097 7.98675805 -2.17770373 5.31713623 -2 2 C-1.34 1.34 -0.68 0.68 0 0 Z " fill="#243A38" transform="translate(64,179)"/>
<path d="M0 0 C1.65 1.32 3.3 2.64 5 4 C4.67 4.99 4.34 5.98 4 7 C2.0625 6.1875 2.0625 6.1875 0 5 C-0.33 4.01 -0.66 3.02 -1 2 C-0.67 1.34 -0.34 0.68 0 0 Z " fill="#293236" transform="translate(139,167)"/>
<path d="M0 0 C0.66 0 1.32 0 2 0 C0.18690997 3.77727089 -1.9073259 7.37269822 -4 11 C-4.99 10.67 -5.98 10.34 -7 10 C-5.88321917 8.3278148 -4.75633648 6.66237197 -3.625 5 C-2.99851562 4.071875 -2.37203125 3.14375 -1.7265625 2.1875 C-1.15679687 1.465625 -0.58703125 0.74375 0 0 Z " fill="#6D9586" transform="translate(82,295)"/>
<path d="M0 0 C1.32 0.33 2.64 0.66 4 1 C3.67 2.65 3.34 4.3 3 6 C0.03 5.505 0.03 5.505 -3 5 C-2.505 4.54625 -2.01 4.0925 -1.5 3.625 C0.22609337 2.12364481 0.22609337 2.12364481 0 0 Z " fill="#6AB897" transform="translate(82,289)"/>
<path d="M0 0 C2.9156164 3.54039134 5.50127818 7.1626772 8 11 C6.68 10.67 5.36 10.34 4 10 C3.67 8.68 3.34 7.36 3 6 C2.34 6 1.68 6 1 6 C0.67 4.02 0.34 2.04 0 0 Z " fill="#7CAD9D" transform="translate(65,207)"/>
<path d="M0 0 C3.3 0.33 6.6 0.66 10 1 C9.67 1.66 9.34 2.32 9 3 C5.7 2.67 2.4 2.34 -1 2 C-0.67 1.34 -0.34 0.68 0 0 Z " fill="#1D3535" transform="translate(92,223)"/>
<path d="M0 0 C0.66 0 1.32 0 2 0 C2.99 2.97 3.98 5.94 5 9 C4.01 9 3.02 9 2 9 C0.50178941 5.62902617 0 3.79557881 0 0 Z " fill="#DAF6EB" transform="translate(73,188)"/>
<path d="M0 0 C3.3 0 6.6 0 10 0 C10.33 0.99 10.66 1.98 11 3 C9.54077307 2.88590407 8.08259402 2.75834456 6.625 2.625 C5.40683594 2.52058594 5.40683594 2.52058594 4.1640625 2.4140625 C2 2 2 2 0 0 Z " fill="#2E353D" transform="translate(146,173)"/>
<path d="M0 0 C0.33 0.66 0.66 1.32 1 2 C1.99 2.33 2.98 2.66 4 3 C3.01 3.495 3.01 3.495 2 4 C0.94647157 6.30965848 -0.05719096 8.6429774 -1 11 C-1.33 11 -1.66 11 -2 11 C-2.28571429 3.57142857 -2.28571429 3.57142857 0 0 Z " fill="#4E555C" transform="translate(179,124)"/>
<path d="M0 0 C1.32 0 2.64 0 4 0 C3.64950425 3.24208567 3.43778819 4.61527704 0.9375 6.8125 C0.298125 7.204375 -0.34125 7.59625 -1 8 C-1.93065133 5.39417629 -2.14917407 4.35801776 -1.0625 1.75 C-0.711875 1.1725 -0.36125 0.595 0 0 Z " fill="#29313B" transform="translate(112,121)"/>
<path d="M0 0 C3.25543229 0.34879632 4.01873107 1.02133261 6.25 3.5625 C6.8275 4.366875 7.405 5.17125 8 6 C7.01 6.495 7.01 6.495 6 7 C3.95880212 5.38405168 1.95927063 3.7143618 0 2 C0 1.34 0 0.68 0 0 Z " fill="#DAF5E9" transform="translate(220,88)"/>
<path d="M0 0 C0 0.66 0 1.32 0 2 C-1.65532623 3.01866229 -3.32260138 4.01810813 -5 5 C-5.33 5.66 -5.66 6.32 -6 7 C-6.99 6.67 -7.98 6.34 -9 6 C-3.15384615 0 -3.15384615 0 0 0 Z " fill="#76A591" transform="translate(30,11)"/>
<path d="M0 0 C0.66 0.33 1.32 0.66 2 1 C1.67 2.65 1.34 4.3 1 6 C0.01 6 -0.98 6 -2 6 C-2.66 5.34 -3.32 4.68 -4 4 C-2.68 2.68 -1.36 1.36 0 0 Z " fill="#E1ECE7" transform="translate(164,169)"/>
<path d="M0 0 C0.99 0.33 1.98 0.66 3 1 C3.625 4.375 3.625 4.375 4 8 C3.34 8.66 2.68 9.32 2 10 C1.34 6.7 0.68 3.4 0 0 Z " fill="#27413F" transform="translate(251,126)"/>
<path d="M0 0 C0.33 0.99 0.66 1.98 1 3 C0.67 3.66 0.34 4.32 0 5 C-0.66 5 -1.32 5 -2 5 C-2.33 6.65 -2.66 8.3 -3 10 C-3.66 9.67 -4.32 9.34 -5 9 C-3.7508258 5.54074837 -2.32472205 2.85306797 0 0 Z " fill="#6A937E" transform="translate(74,289)"/>
<path d="M0 0 C1.32 0 2.64 0 4 0 C4.33 0.99 4.66 1.98 5 3 C1.7 3 -1.6 3 -5 3 C-3.68 2.34 -2.36 1.68 -1 1 C-0.67 0.67 -0.34 0.34 0 0 Z " fill="#7DB4A1" transform="translate(121,60)"/>
<path d="M0 0 C0.66 0.66 1.32 1.32 2 2 C-0.3125 3.5625 -0.3125 3.5625 -3 5 C-3.99 4.67 -4.98 4.34 -6 4 C-4.02 2.68 -2.04 1.36 0 0 Z " fill="#DAF6EB" transform="translate(85,86)"/>
<path d="M0 0 C0.33 0.99 0.66 1.98 1 3 C0.030625 3.12375 -0.93875 3.2475 -1.9375 3.375 C-2.948125 3.58125 -3.95875 3.7875 -5 4 C-5.33 4.66 -5.66 5.32 -6 6 C-6 5.01 -6 4.02 -6 3 C-4.02 2.01 -2.04 1.02 0 0 Z " fill="#77AA97" transform="translate(84,74)"/>
<path d="M0 0 C0.33 0 0.66 0 1 0 C1 1.98 1 3.96 1 6 C2.65 5.67 4.3 5.34 6 5 C6 5.99 6 6.98 6 8 C3.03 7.505 3.03 7.505 0 7 C0 4.69 0 2.38 0 0 Z " fill="#7EB3A2" transform="translate(235,113)"/>
<path d="" fill="#FFFFFF" transform="translate(0,0)"/>
<path d="" fill="#FFFFFF" transform="translate(0,0)"/>
<path d="" fill="#FFFFFF" transform="translate(0,0)"/>
<path d="" fill="#FFFFFF" transform="translate(0,0)"/>
<path d="" fill="#FFFFFF" transform="translate(0,0)"/>
<path d="" fill="#FFFFFF" transform="translate(0,0)"/>
<path d="" fill="#FFFFFF" transform="translate(0,0)"/>
<path d="" fill="#FFFFFF" transform="translate(0,0)"/>
<path d="" fill="#FFFFFF" transform="translate(0,0)"/>
<path d="" fill="#FFFFFF" transform="translate(0,0)"/>
<path d="" fill="#FFFFFF" transform="translate(0,0)"/>
<path d="" fill="#FFFFFF" transform="translate(0,0)"/>
<path d="" fill="#FFFFFF" transform="translate(0,0)"/>
<path d="" fill="#FFFFFF" transform="translate(0,0)"/>
<path d="" fill="#FFFFFF" transform="translate(0,0)"/>
<path d="" fill="#FFFFFF" transform="translate(0,0)"/>
<path d="" fill="#FFFFFF" transform="translate(0,0)"/>
<path d="" fill="#FFFFFF" transform="translate(0,0)"/>
<path d="" fill="#FFFFFF" transform="translate(0,0)"/>
<path d="" fill="#FFFFFF" transform="translate(0,0)"/>
<path d="" fill="#FFFFFF" transform="translate(0,0)"/>
<path d="" fill="#FFFFFF" transform="translate(0,0)"/>
<path d="" fill="#FFFFFF" transform="translate(0,0)"/>
<path d="" fill="#FFFFFF" transform="translate(0,0)"/>
</svg>
